<?xml version="1.0" encoding="UTF-8"?>
<!DOCTYPE svg PUBLIC "-//W3C//DTD SVG 1.1//EN" "http://www.w3.org/Graphics/SVG/1.1/DTD/svg11.dtd">
<!-- Creator: CorelDRAW X7 -->
<svg xmlns="http://www.w3.org/2000/svg" xml:space="preserve" width="80mm" height="80mm" version="1.1" style="shape-rendering:geometricPrecision; text-rendering:geometricPrecision; image-rendering:optimizeQuality; fill-rule:evenodd; clip-rule:evenodd"
viewBox="0 0 3409 3409"
 xmlns:xlink="http://www.w3.org/1999/xlink">
 <defs>
  <style type="text/css">
   <![CDATA[
    .fil2 {fill:none}
    .fil1 {fill:#FEFEFE}
    .fil0 {fill:#933C60}
    .fil3 {fill:#F3A358}
   ]]>
  </style>
 </defs>
 <g id="Layer_x0020_1">
  <metadata id="CorelCorpID_0Corel-Layer"/>
  <g id="_365299616">
   <circle class="fil0" cx="1705" cy="1705" r="1705"/>
   <g>
    <path class="fil1" d="M2544 3188c-47,-114 -85,-201 -209,-233 -62,-16 -90,-67 -111,-125 -55,-150 508,-581 -115,-551l0 0c-155,39 -330,299 -464,401l-45 30c-88,50 -298,237 -374,137 -50,-68 -127,-48 -186,0 60,-21 125,-51 166,12 89,135 310,-62 410,-109 98,-46 251,-215 338,-296 101,-94 117,-120 252,-119 369,3 -92,329 -17,511 28,68 65,124 140,139 116,24 149,105 215,203z"/>
   </g>
   <path class="fil2" d="M2544 3188c-181,-359 -226,-96 -338,-350 -70,-161 482,-575 -95,-529 -111,9 -384,371 -503,421 -74,31 -318,248 -392,123 -50,-86 -175,-8 -176,-6"/>
   <g>
    <path class="fil1" d="M1620 1916c-88,-6 -137,10 -210,63 -80,57 -119,119 -165,202 -3,2 -12,6 -17,10 36,-1 36,-30 60,-61 88,-117 186,-194 332,-214z"/>
   </g>
   <path class="fil2" d="M1620 1916c-132,-12 -288,113 -372,267 -2,2 -17,7 -20,8"/>
   <g>
    <path class="fil1" d="M1373 2063c-67,89 153,120 183,-6 11,-47 -33,-76 -79,-55 29,31 55,29 8,56 -74,42 -72,53 -112,5z"/>
   </g>
   <path class="fil2" d="M1373 2063c-9,140 279,-35 104,-61"/>
   <g>
    <path class="fil1" d="M2564 1519c-211,99 -295,245 -359,460 -65,218 -129,251 -262,409 178,-100 276,-248 335,-441 80,-261 112,-247 286,-428z"/>
   </g>
   <path class="fil2" d="M2564 1519c-466,321 -168,508 -621,869"/>
   <g>
    <path class="fil1" d="M1903 1141c72,-152 -258,-333 -395,-278l-25 15c-22,6 -52,4 -59,46 -25,134 327,159 252,315 -7,16 -1,34 14,42 15,7 33,1 41,-14 78,-191 -170,-216 -264,-300 -39,-35 -17,-79 16,-89l28 -1c71,-1 114,8 179,42 42,22 194,135 161,189 -9,14 -5,33 9,42 15,9 34,5 43,-9z"/>
   </g>
   <path class="fil2" d="M1877 1124c56,-88 -216,-319 -404,-243 -44,18 -76,77 51,144 143,75 231,128 180,228"/>
   <g>
    <path class="fil1" d="M2100 1286c112,-175 175,-388 -40,-514 -87,-51 -191,-82 -291,-89 72,39 143,61 215,102 251,142 156,279 116,501z"/>
   </g>
   <path class="fil2" d="M2100 1286c115,-288 166,-468 -331,-603"/>
   <g>
    <path class="fil1" d="M1702 1292c87,-83 315,-155 234,-327 -66,-142 -242,-134 -199,-214 31,-56 177,-11 224,-2 -49,-33 -65,-46 -124,-60 -92,-21 -182,24 -155,120 12,42 113,98 155,134 190,163 -145,258 -135,349z"/>
   </g>
   <path class="fil2" d="M1702 1292c8,-47 148,-105 197,-183 100,-159 -145,-253 -182,-292 -27,-28 -31,-192 244,-68"/>
   <g>
    <path class="fil1" d="M2184 1236c-47,87 -76,127 -184,136 -77,6 -101,-33 -138,-89l-3 35c13,114 193,154 289,45 39,-44 45,-73 36,-127z"/>
   </g>
   <path class="fil2" d="M2184 1236c-10,185 -297,231 -322,47"/>
   <g>
    <path class="fil1" d="M2021 911c-26,87 40,243 -75,304 -6,4 -79,32 -80,32 46,10 49,16 93,4 158,-42 121,-232 62,-340z"/>
   </g>
   <path class="fil2" d="M2021 911c-9,32 123,333 -155,336"/>
   <g>
    <path class="fil3" d="M986 2051c-221,-30 -338,-64 -372,-316 -24,-168 4,-333 -13,-495 -13,105 -23,261 -24,366 -3,289 95,469 409,445z"/>
   </g>
   <path class="fil2" d="M986 2051c-494,0 -385,-409 -385,-811"/>
   <g>
    <path class="fil3" d="M1040 2847c-97,2 -112,-51 -151,-140 -54,-122 -72,-147 -143,-252 -120,-178 -271,-396 -265,-619 4,-140 53,-352 71,-503 4,-32 10,-107 19,-163 6,130 8,420 15,486l9 55c5,-76 3,-35 5,-112 2,-75 27,-485 -2,-518 -57,-64 -83,150 -83,154 -19,140 -43,263 -69,400 -59,316 3,455 175,710 54,81 145,191 191,268 53,91 101,283 228,234z"/>
   </g>
   <path class="fil2" d="M1040 2847c-132,41 -156,-169 -245,-291 -490,-673 -335,-663 -261,-1283 2,-11 3,-23 4,-35 4,-34 18,-145 40,-145 32,0 1,322 17,618"/>
   <g>
    <path class="fil3" d="M1702 1292c-240,204 -164,431 -434,556 -269,123 -295,-266 -322,-433 -20,171 33,557 283,494 166,-42 244,-159 302,-307 60,-152 73,-176 171,-310z"/>
   </g>
   <path class="fil2" d="M1702 1292c-222,222 -152,406 -366,544 -332,215 -390,-225 -390,-421"/>
   <g>
    <path class="fil3" d="M1075 2037c-183,-35 -258,-71 -236,-277 11,-100 46,-233 66,-336 1,-8 4,-24 8,-42 0,17 0,36 2,57 11,104 34,186 76,281 -14,-94 -37,-187 -41,-283 -1,-31 13,-141 0,-157 -40,-48 -75,63 -80,80 -39,134 -112,446 -49,572 52,104 152,112 254,105z"/>
   </g>
   <path class="fil2" d="M1075 2037c-365,0 -256,-309 -201,-588 3,-14 28,-156 55,-157 26,-1 -42,94 62,428"/>
   <g>
    <path class="fil3" d="M986 2051c-212,85 -41,213 -212,335l-38 25c61,-20 108,-41 135,-104 53,-122 -38,-135 115,-256z"/>
   </g>
   <path class="fil2" d="M986 2051c-210,104 -5,256 -250,360"/>
   <g>
    <path class="fil3" d="M1390 1874c-150,-1 -174,152 -368,173 -59,6 24,-5 -36,4 211,30 230,-136 404,-177z"/>
   </g>
   <path class="fil2" d="M1390 1874c-138,5 -191,177 -368,177 -12,0 -24,0 -36,0"/>
   <g>
    <path class="fil3" d="M847 2293c-101,0 -139,-57 -181,-146 -64,-135 -88,-263 -131,-398l-16 -42c-2,102 19,206 46,304 26,95 141,363 282,282z"/>
   </g>
   <path class="fil2" d="M847 2293c-114,44 -251,-113 -328,-586"/>
   <g>
    <path class="fil3" d="M1158 1981c-82,7 -119,-2 -168,-79 -26,-39 -34,-89 -44,-133l-14 67c-4,144 156,231 226,145z"/>
   </g>
   <path class="fil2" d="M1158 1981c-83,56 -230,-24 -212,-212"/>
   <g>
    <path class="fil1" d="M2178 955c112,19 119,3 226,-12 102,-15 112,2 207,48 -52,-67 -70,-100 -162,-110 -69,-7 -202,50 -271,74z"/>
   </g>
   <path class="fil2" d="M2178 955c172,0 272,-125 433,36"/>
   <g>
    <path class="fil1" d="M2453 874c100,14 312,-4 381,54 6,5 32,33 36,37 -1,-38 0,-47 -32,-78 -97,-92 -276,-63 -385,-13z"/>
   </g>
   <path class="fil2" d="M2453 874c109,-18 379,-55 417,91"/>
   <g>
    <path class="fil1" d="M2686 808c258,-14 277,-47 497,140 45,39 24,23 76,56 -42,-72 -97,-141 -163,-192 -128,-101 -277,-74 -410,-4z"/>
   </g>
   <path class="fil2" d="M2686 808c318,-96 389,7 573,196"/>
   <g>
    <path class="fil1" d="M1773 2396c290,-261 332,-438 151,-565 252,33 135,391 -151,565z"/>
   </g>
   <path class="fil2" d="M1773 2396c183,-111 429,-488 151,-565"/>
   <g>
    <path class="fil1" d="M1021 2711c-9,5 -17,13 -14,24 6,25 52,15 44,-10 -2,-9 -21,-23 -29,-14l2 1c11,5 26,18 7,23 -21,5 -14,-12 -10,-24z"/>
   </g>
   <path class="fil2" d="M1021 2711c-30,34 21,41 25,19 2,-10 -15,-22 -24,-19"/>
   <g>
    <path class="fil1" d="M2649 2606c-36,110 -5,235 60,328 35,52 29,62 48,121 5,-57 -1,-84 -29,-133 -19,-34 -31,-63 -44,-100 -35,-93 -27,-124 -35,-216z"/>
   </g>
   <path class="fil2" d="M2649 2606c-17,127 11,238 82,342 15,21 24,80 26,107"/>
   <g>
    <path class="fil1" d="M2293 1877c45,-46 70,-60 132,-79 52,-16 148,-36 189,-67 20,-15 14,-16 40,-30l18 -9 14 -8c-28,5 -45,11 -68,28 -25,18 -33,21 -64,31 -80,25 -226,47 -261,134z"/>
   </g>
   <path class="fil2" d="M2293 1877c63,-107 274,-103 330,-162 11,-12 47,-26 63,-31"/>
   <g>
    <path class="fil1" d="M1302 2192c22,14 53,10 80,-4 15,-7 16,-5 31,-8 -12,-4 -19,-3 -32,2 -10,4 -17,7 -27,9 -24,6 -30,2 -52,1z"/>
   </g>
   <path class="fil2" d="M1302 2192c27,10 55,6 85,-9 6,-4 20,-4 26,-3"/>
  </g>
 </g>
</svg>
