<?xml version="1.0" encoding="UTF-8" standalone="no"?>
<svg
   xmlns:dc="http://purl.org/dc/elements/1.1/"
   xmlns:cc="http://creativecommons.org/ns#"
   xmlns:rdf="http://www.w3.org/1999/02/22-rdf-syntax-ns#"
   xmlns:svg="http://www.w3.org/2000/svg"
   xmlns="http://www.w3.org/2000/svg"
   xmlns:sodipodi="http://sodipodi.sourceforge.net/DTD/sodipodi-0.dtd"
   xmlns:inkscape="http://www.inkscape.org/namespaces/inkscape"
   id="svg"
   version="1.1"
   width="400"
   height="450.070323488045"
   viewBox="0 0 400 450.070323488045"
   sodipodi:docname="image2vector.svg"
   inkscape:version="0.92.3 (2405546, 2018-03-11)">
  <metadata
     id="metadata13">
    <rdf:RDF>
      <cc:Work
         rdf:about="">
        <dc:format>image/svg+xml</dc:format>
        <dc:type
           rdf:resource="http://purl.org/dc/dcmitype/StillImage" />
        <dc:title></dc:title>
      </cc:Work>
    </rdf:RDF>
  </metadata>
  <defs
     id="defs11" />
  <sodipodi:namedview
     pagecolor="#ffffff"
     bordercolor="#666666"
     borderopacity="0"
     objecttolerance="10"
     gridtolerance="10"
     guidetolerance="10"
     inkscape:pageopacity="0"
     inkscape:pageshadow="2"
     inkscape:window-width="1920"
     inkscape:window-height="1001"
     id="namedview9"
     showgrid="false"
     inkscape:zoom="1.4831212"
     inkscape:cx="232.98488"
     inkscape:cy="214.5174"
     inkscape:window-x="-9"
     inkscape:window-y="-9"
     inkscape:window-maximized="1"
     inkscape:current-layer="svg" />
  <path
     style="fill:#010101;fill-rule:evenodd;stroke:none"
     inkscape:connector-curvature="0"
     d="M 76.137,0.118 C 43.07,1.771 20.272,34.807 30.92,65.639 c 3.039,8.797 8.406,16.678 15.277,22.433 l 0.909,0.761 -0.753,2.232 c -1.253,3.713 -2.402,7.522 -3.308,10.965 -1.067,4.058 -0.892,3.673 -2.874,6.31 -56.02,74.517 -52.98,177.804 7.319,248.608 1.471,1.727 2.754,3.253 2.852,3.392 0.123,0.173 -0.119,0.995 -0.782,2.656 -6.846,17.163 -9.358,44.401 -5.419,58.757 3.893,14.184 14.046,22.974 31.788,27.521 l 2.74,0.703 h 34.786 34.787 l 2.74,-0.703 c 14.95,-3.831 25.022,-11.103 29.513,-21.308 l 0.361,-0.82 1.508,0.12 c 5.089,0.405 7.104,0.512 12.507,0.665 3.308,0.094 6.11,0.142 6.228,0.107 0.117,-0.036 2.661,-0.113 5.652,-0.172 l 5.438,-0.108 0.751,1.439 c 5.129,9.841 14.103,16.131 28.504,19.978 l 3,0.802 34.504,0.049 34.504,0.049 3.023,-0.743 c 20.419,-5.019 30.799,-15.543 33.585,-34.048 0.474,-3.153 0.471,-16.33 -0.006,-21.472 -0.964,-10.403 -2.371,-17.833 -4.825,-25.474 l -0.743,-2.314 0.8,-0.903 c 0.439,-0.497 1.637,-1.818 2.66,-2.937 51.572,-56.383 66.15,-138.028 37.33,-209.066 -8.998,-22.18 -23.538,-44.812 -39.55,-61.562 -0.838,-0.876 -1.41,-1.619 -1.313,-1.704 0.095,-0.082 0.847,-0.687 1.672,-1.343 19.671,-15.65 24.237,-44.694 10.306,-65.556 -18.923,-28.336 -58.487,-30.61 -79.992,-4.598 l -0.834,1.009 -3.746,-1.319 C 228.732,2.88 163.171,2.577 120.447,17.345 l -3.603,1.246 -3.241,-3.258 C 103.307,4.987 89.654,-0.558 76.137,0.118 m 8.908,7.557 c 11.311,1.978 20.085,7.39 27.343,16.867 1.633,2.133 2.607,2.301 5.981,1.033 21.835,-8.208 45.442,-11.885 76.286,-11.882 32.641,0.002 57.789,4.066 79.94,12.916 2.906,1.161 3.763,0.836 6.13,-2.324 10.452,-13.96 27.571,-20.061 44.638,-15.908 34.001,8.272 43.71,52.663 16.333,74.667 -2.469,1.985 -2.242,1.944 -3.646,0.659 -0.66,-0.603 -2.202,-2.019 -3.427,-3.147 -78.7,-72.444 -199.983,-69.511 -276.161,6.678 -2.759,2.759 -5.016,4.982 -5.016,4.939 0,-0.043 0.295,-0.893 0.656,-1.891 1.186,-3.276 0.9,-4.293 -1.781,-6.332 C 42.87,76.765 37.526,67.645 35.6,55.415 35.236,53.104 35.297,46.337 35.707,43.601 38.718,23.495 53.706,9.395 74.355,7.242 76.381,7.031 82.861,7.293 85.045,7.675 M 211.158,35.448 C 315.129,41.607 394.612,127.311 392.811,231.317 390.854,344.269 294.413,430.575 181.81,420.145 74.114,410.17 -3.732,314.107 8.35,206.095 19.734,104.319 108.792,29.384 211.158,35.448 m -24.38,162.536 c -0.006,0.804 -0.948,31.768 -1.029,33.802 -1.374,34.659 -4.985,53.637 -11.84,62.242 -1.464,1.837 -2.818,2.89 -6.078,4.723 l -2.796,1.573 3.05,3.096 c 1.678,1.703 8.327,8.428 14.776,14.944 l 11.725,11.847 14.764,-14.558 14.765,-14.557 -3.862,-3.853 c -4.167,-4.159 -5.14,-5.374 -6.384,-7.979 -3.434,-7.191 -6.618,-23.824 -7.77,-40.6 -0.539,-7.84 -0.614,-11.077 -0.699,-30.239 l -0.091,-20.582 h -9.265 c -5.096,0 -9.265,0.064 -9.266,0.141 M 66.573,376.66 c 29.23,26.068 64.577,43.035 101.735,48.834 2.062,0.322 4.071,0.646 4.463,0.72 l 0.713,0.134 -0.713,1.174 c -8.074,13.292 -23.7,18.047 -59.316,18.047 -23.636,0 -36.202,-1.766 -46.08,-6.476 -15.869,-7.565 -20.607,-21.874 -16.92,-51.095 0.926,-7.337 2.499,-14.109 4.629,-19.925 l 0.67,-1.828 4.144,4.078 c 2.279,2.244 5.283,5.095 6.675,6.337 m 272.823,-3.617 c 3.114,10.637 5.059,31.138 3.822,40.272 -3.285,24.244 -19.132,32.256 -63.799,32.253 -34.778,-0.002 -50.859,-4.686 -58.759,-17.114 -0.913,-1.436 -0.97,-1.368 1.328,-1.618 42.784,-4.667 83.481,-23.614 115.19,-53.626 1.931,-1.828 1.737,-1.813 2.218,-0.167"
     id="path0" />
  <path
     style="fill:#303338;fill-rule:evenodd;stroke:none"
     inkscape:connector-curvature="0"
     d="m 76.28,0.133 c 0.233,0.044 0.571,0.043 0.75,-0.004 0.179,-0.047 -0.012,-0.084 -0.424,-0.082 -0.413,0.002 -0.56,0.041 -0.326,0.086 m 3.279,-0.004 c 0.181,0.047 0.476,0.047 0.657,0 0.18,-0.047 0.032,-0.085 -0.329,-0.085 -0.361,0 -0.508,0.038 -0.328,0.085 m 233.099,0 c 0.181,0.047 0.476,0.047 0.657,0 0.18,-0.047 0.032,-0.085 -0.329,-0.085 -0.361,0 -0.508,0.038 -0.328,0.085 m 3.284,0.004 c 0.233,0.044 0.571,0.043 0.75,-0.004 0.18,-0.047 -0.011,-0.084 -0.424,-0.082 -0.412,0.002 -0.559,0.041 -0.326,0.086 M 186.359,6.696 c 0.234,0.045 0.571,0.043 0.751,-0.004 0.179,-0.047 -0.012,-0.083 -0.425,-0.081 -0.412,0.002 -0.559,0.04 -0.326,0.085 m 15.938,0 c 0.232,0.045 0.612,0.045 0.844,0 0.232,-0.045 0.042,-0.081 -0.422,-0.081 -0.464,0 -0.654,0.036 -0.422,0.081 M 75.246,7.255 c 0.181,0.048 0.476,0.048 0.656,0 0.181,-0.047 0.033,-0.085 -0.328,-0.085 -0.361,0 -0.508,0.038 -0.328,0.085 m 5.063,0 c 0.181,0.048 0.476,0.048 0.657,0 0.18,-0.047 0.033,-0.085 -0.328,-0.085 -0.361,0 -0.509,0.038 -0.329,0.085 m 231.599,0 c 0.181,0.048 0.476,0.048 0.656,0 0.181,-0.047 0.033,-0.085 -0.328,-0.085 -0.361,0 -0.508,0.038 -0.328,0.085 m 5.063,0 c 0.181,0.048 0.476,0.048 0.657,0 0.18,-0.047 0.033,-0.085 -0.328,-0.085 -0.361,0 -0.509,0.038 -0.329,0.085 m -132.493,6.57 c 0.333,0.041 0.923,0.042 1.312,0.001 0.39,-0.04 0.117,-0.074 -0.605,-0.075 -0.722,-10e-4 -1.04,0.033 -0.707,0.074 m 18.94,0 c 0.333,0.041 0.924,0.042 1.313,0.001 0.389,-0.04 0.117,-0.074 -0.605,-0.075 -0.722,-10e-4 -1.041,0.033 -0.708,0.074 m -23.624,0.185 c 0.232,0.044 0.612,0.044 0.844,0 0.232,-0.045 0.042,-0.082 -0.422,-0.082 -0.464,0 -0.654,0.037 -0.422,0.082 m 29.256,0 c 0.234,0.045 0.571,0.043 0.751,-0.004 0.179,-0.047 -0.012,-0.084 -0.425,-0.082 -0.412,0.003 -0.559,0.041 -0.326,0.086 m -96.532,0.113 c 0,0.033 0.274,0.307 0.609,0.61 l 0.61,0.551 -0.551,-0.61 c -0.514,-0.568 -0.668,-0.696 -0.668,-0.551 m 63.619,0.071 c 0.18,0.047 0.476,0.047 0.656,0 0.181,-0.047 0.033,-0.086 -0.328,-0.086 -0.361,0 -0.509,0.039 -0.328,0.086 m 36.756,0 c 0.18,0.047 0.475,0.047 0.656,0 0.18,-0.047 0.033,-0.086 -0.328,-0.086 -0.361,0 -0.509,0.039 -0.328,0.086 m 2.813,0.187 c 0.18,0.048 0.475,0.048 0.656,0 0.18,-0.047 0.033,-0.085 -0.328,-0.085 -0.361,0 -0.509,0.038 -0.328,0.085 m 69.239,4.981 -1.119,1.172 1.172,-1.119 c 0.644,-0.615 1.172,-1.143 1.172,-1.172 0,-0.138 -0.185,0.031 -1.225,1.119 m -237.412,0.188 -1.119,1.172 1.172,-1.119 c 1.088,-1.04 1.257,-1.225 1.119,-1.225 -0.029,0 -0.557,0.527 -1.172,1.172 m 60.203,-0.234 c 0.402,0.412 0.774,0.75 0.826,0.75 0.051,0 -0.236,-0.338 -0.639,-0.75 -0.403,-0.413 -0.775,-0.751 -0.826,-0.751 -0.052,0 0.236,0.338 0.639,0.751 m 90.344,8.76 c 0.285,0.044 0.707,0.042 0.938,-0.002 0.231,-0.045 -0.003,-0.08 -0.518,-0.078 -0.516,0.001 -0.705,0.037 -0.42,0.08 m 3.001,0 c 0.285,0.044 0.707,0.042 0.938,-0.002 0.23,-0.045 -0.003,-0.08 -0.519,-0.078 -0.515,0.001 -0.704,0.037 -0.419,0.08 m -9.752,0.188 c 0.285,0.043 0.707,0.042 0.938,-0.003 0.231,-0.044 -0.003,-0.079 -0.518,-0.078 -0.516,0.001 -0.705,0.038 -0.42,0.081 m 16.503,0 c 0.285,0.043 0.707,0.042 0.938,-0.003 0.23,-0.044 -0.003,-0.079 -0.519,-0.078 -0.515,0.001 -0.704,0.038 -0.419,0.081 m 6.748,0.37 c 0.181,0.047 0.476,0.047 0.657,0 0.18,-0.047 0.033,-0.086 -0.328,-0.086 -0.361,0 -0.509,0.039 -0.329,0.086 m -17.341,6.572 c 0.441,0.039 1.116,0.039 1.5,-0.002 0.384,-0.04 0.023,-0.072 -0.802,-0.072 -0.825,0.001 -1.139,0.034 -0.698,0.074 m 4.214,-0.001 c 0.387,0.04 1.02,0.04 1.407,0 0.387,-0.041 0.07,-0.074 -0.703,-0.074 -0.774,0 -1.09,0.033 -0.704,0.074 m -10.499,0.185 c 0.285,0.043 0.707,0.042 0.938,-0.002 0.231,-0.045 -0.003,-0.08 -0.518,-0.079 -0.516,0.002 -0.705,0.038 -0.42,0.081 m 17.253,0 c 0.285,0.043 0.707,0.042 0.938,-0.002 0.23,-0.045 -0.003,-0.08 -0.519,-0.079 -0.515,0.002 -0.704,0.038 -0.419,0.081 m -20.631,0.182 c 0.181,0.047 0.476,0.047 0.657,0 0.18,-0.047 0.032,-0.085 -0.329,-0.085 -0.361,0 -0.508,0.038 -0.328,0.085 M 35.314,48.476 c 10e-4,0.619 0.036,0.85 0.077,0.513 0.042,-0.337 0.041,-0.844 -10e-4,-1.126 -0.043,-0.281 -0.077,-0.006 -0.076,0.613 m 322.185,1.501 c 10e-4,1.031 0.032,1.429 0.07,0.884 0.038,-0.545 0.038,-1.389 -0.001,-1.875 -0.038,-0.487 -0.069,-0.041 -0.069,0.991 M 28.188,50.164 c 0.001,0.619 0.036,0.849 0.077,0.512 0.042,-0.337 0.041,-0.843 -0.002,-1.125 -0.042,-0.282 -0.077,-0.006 -0.075,0.613 m 7.124,1.407 c 0,0.567 0.035,0.799 0.078,0.515 0.043,-0.283 0.043,-0.748 0,-1.031 -0.043,-0.284 -0.078,-0.052 -0.078,0.516 m 309.929,28.223 c -0.455,0.464 -0.786,0.844 -0.734,0.844 0.052,0 0.466,-0.38 0.922,-0.844 0.455,-0.464 0.786,-0.844 0.734,-0.844 -0.051,0 -0.466,0.38 -0.922,0.844 M 47.07,79.384 c 0,0.032 0.274,0.306 0.609,0.609 l 0.61,0.551 -0.551,-0.61 C 47.225,79.366 47.07,79.239 47.07,79.384 m 289.358,2.813 c 0,0.032 0.274,0.306 0.609,0.609 l 0.61,0.551 -0.551,-0.61 c -0.514,-0.568 -0.668,-0.695 -0.668,-0.55 m -273.711,0.738 -0.551,0.609 0.609,-0.55 c 0.569,-0.514 0.696,-0.669 0.551,-0.669 -0.032,0 -0.306,0.275 -0.609,0.61 m 268.272,3.2 c 0,0.032 0.274,0.306 0.61,0.609 l 0.609,0.551 -0.551,-0.61 c -0.513,-0.568 -0.668,-0.695 -0.668,-0.55 m -262.834,0.738 -0.551,0.609 0.61,-0.55 c 0.568,-0.514 0.695,-0.669 0.551,-0.669 -0.033,0 -0.307,0.275 -0.61,0.61 M 54.806,87.67 c 0.002,0.413 0.04,0.559 0.085,0.326 0.045,-0.233 0.043,-0.571 -0.004,-0.75 -0.047,-0.179 -0.083,0.011 -0.081,0.424 m 281.618,3.704 c 1.081,1.108 1.989,2.016 2.016,2.016 0.136,0 -0.093,-0.241 -1.966,-2.067 l -2.015,-1.965 1.965,2.016 M 63.385,91.421 c -0.768,0.773 -1.355,1.406 -1.303,1.406 0.051,0 0.722,-0.633 1.49,-1.406 0.769,-0.774 1.355,-1.407 1.304,-1.407 -0.052,0 -0.723,0.633 -1.491,1.407 m 280.919,-1.348 c 0,0.032 0.274,0.306 0.609,0.609 l 0.61,0.551 -0.551,-0.609 c -0.513,-0.569 -0.668,-0.696 -0.668,-0.551 m -289.651,0.926 -0.551,0.609 0.61,-0.551 c 0.568,-0.513 0.695,-0.668 0.55,-0.668 -0.032,0 -0.306,0.274 -0.609,0.61 m 4.126,5.25 -0.551,0.61 0.609,-0.551 c 0.336,-0.303 0.61,-0.577 0.61,-0.609 0,-0.145 -0.155,-0.018 -0.668,0.55 m 281.962,-0.363 c 0,0.032 0.274,0.307 0.609,0.61 l 0.61,0.55 -0.551,-0.609 c -0.514,-0.568 -0.668,-0.696 -0.668,-0.551 M 205.425,201.969 c 0,2.321 0.027,3.27 0.06,2.11 0.032,-1.161 0.032,-3.059 0,-4.22 -0.033,-1.16 -0.06,-0.211 -0.06,2.11 m -18.773,-2.25 c 0,0.67 0.034,0.944 0.075,0.609 0.042,-0.335 0.042,-0.884 0,-1.219 -0.041,-0.335 -0.075,-0.061 -0.075,0.61 m -0.188,6.376 c 0,0.67 0.034,0.944 0.076,0.609 0.041,-0.335 0.041,-0.884 0,-1.219 -0.042,-0.335 -0.076,-0.061 -0.076,0.61 m -0.189,6.282 c 0.001,0.619 0.036,0.849 0.078,0.512 0.041,-0.337 0.04,-0.843 -0.002,-1.125 -0.043,-0.282 -0.077,-0.006 -0.076,0.613 m -178.73,2.532 c 0,0.361 0.038,0.508 0.085,0.328 0.048,-0.181 0.048,-0.476 0,-0.657 -0.047,-0.18 -0.085,-0.032 -0.085,0.329 m -0.184,3.094 c 0.002,0.412 0.04,0.559 0.085,0.326 0.045,-0.233 0.043,-0.571 -0.004,-0.75 -0.046,-0.18 -0.083,0.011 -0.081,0.424 m 385.181,-0.094 c 0,0.361 0.039,0.509 0.086,0.328 0.047,-0.18 0.047,-0.476 0,-0.656 -0.047,-0.181 -0.086,-0.033 -0.086,0.328 m -206.455,0.844 c 0.001,0.619 0.036,0.849 0.078,0.512 0.042,-0.337 0.041,-0.843 -0.002,-1.125 -0.043,-0.282 -0.077,-0.006 -0.076,0.613 m 213.581,-0.094 c 0,0.361 0.039,0.509 0.086,0.328 0.047,-0.18 0.047,-0.476 0,-0.656 -0.047,-0.181 -0.086,-0.033 -0.086,0.328 m -6.919,4.501 c 0,0.773 0.034,1.09 0.074,0.703 0.04,-0.387 0.04,-1.02 0,-1.406 -0.04,-0.387 -0.074,-0.071 -0.074,0.703 M 7.192,223.535 c 0,0.877 0.032,1.235 0.071,0.797 0.04,-0.438 0.04,-1.156 0,-1.594 -0.039,-0.438 -0.071,-0.08 -0.071,0.797 m 392.686,1.5 c 0,0.877 0.032,1.236 0.072,0.797 0.039,-0.438 0.039,-1.155 0,-1.594 -0.04,-0.438 -0.072,-0.08 -0.072,0.797 m -399.81,0.75 c 0,0.98 0.031,1.381 0.07,0.891 0.038,-0.49 0.038,-1.292 0,-1.781 -0.039,-0.49 -0.07,-0.09 -0.07,0.89 M 185.9,225.129 c 0.001,0.619 0.036,0.849 0.077,0.512 0.042,-0.337 0.041,-0.843 -0.001,-1.125 -0.043,-0.282 -0.077,-0.006 -0.076,0.613 M 0.067,230.38 c -0.001,0.928 0.031,1.331 0.07,0.896 0.039,-0.435 0.04,-1.195 0.001,-1.688 -0.039,-0.493 -0.071,-0.137 -0.071,0.792 m 399.812,0.75 c -0.001,0.928 0.031,1.332 0.071,0.896 0.039,-0.435 0.039,-1.194 0.001,-1.687 -0.039,-0.494 -0.071,-0.137 -0.072,0.791 m -214.171,-0.375 c 0.001,0.516 0.037,0.704 0.081,0.419 0.043,-0.285 0.042,-0.707 -0.003,-0.937 -0.044,-0.231 -0.08,0.002 -0.078,0.518 M 7.193,232.63 c -10e-4,0.928 0.031,1.332 0.07,0.897 0.039,-0.436 0.04,-1.195 0.001,-1.688 -0.039,-0.493 -0.071,-0.137 -0.071,0.791 m 198.218,0.188 c 0,0.928 0.031,1.331 0.071,0.896 0.039,-0.435 0.039,-1.195 0.001,-1.688 -0.039,-0.493 -0.071,-0.137 -0.072,0.792 m 187.34,0.187 c 0,0.825 0.033,1.14 0.073,0.698 0.04,-0.441 0.039,-1.116 -0.001,-1.5 -0.041,-0.384 -0.073,-0.023 -0.072,0.802 m -207.233,2.719 c 0,0.464 0.036,0.654 0.081,0.422 0.045,-0.232 0.045,-0.612 0,-0.844 -0.045,-0.232 -0.081,-0.042 -0.081,0.422 M 7.361,238.068 c 0.002,0.413 0.04,0.56 0.085,0.326 0.045,-0.233 0.043,-0.57 -0.004,-0.75 -0.046,-0.179 -0.083,0.012 -0.081,0.424 m 385.185,0.188 c 0.002,0.413 0.041,0.559 0.085,0.326 0.045,-0.233 0.044,-0.571 -0.003,-0.75 -0.047,-0.179 -0.084,0.011 -0.082,0.424 m -186.963,1.031 c 0,0.465 0.037,0.654 0.081,0.422 0.045,-0.232 0.045,-0.611 0,-0.844 -0.044,-0.232 -0.081,-0.042 -0.081,0.422 m -20.261,0.188 c 0,0.361 0.039,0.509 0.086,0.328 0.047,-0.18 0.047,-0.476 0,-0.656 -0.047,-0.181 -0.086,-0.033 -0.086,0.328 M 7.545,241.163 c 0,0.361 0.038,0.508 0.085,0.328 0.048,-0.181 0.048,-0.476 0,-0.656 -0.047,-0.181 -0.085,-0.033 -0.085,0.328 m 384.81,0.187 c 0,0.361 0.038,0.509 0.086,0.328 0.047,-0.18 0.047,-0.475 0,-0.656 -0.048,-0.18 -0.086,-0.033 -0.086,0.328 m -186.592,2.063 c 0,0.361 0.039,0.509 0.086,0.328 0.047,-0.18 0.047,-0.476 0,-0.656 -0.047,-0.181 -0.086,-0.033 -0.086,0.328 m 0.188,3.376 c 0,0.361 0.038,0.508 0.085,0.328 0.048,-0.181 0.048,-0.476 0,-0.657 -0.047,-0.18 -0.085,-0.032 -0.085,0.329 m -33.342,48.617 -0.551,0.609 0.61,-0.551 c 0.335,-0.303 0.609,-0.577 0.609,-0.609 0,-0.145 -0.155,-0.018 -0.668,0.551 m 50.363,4.512 c 0,0.032 0.275,0.307 0.61,0.61 l 0.609,0.55 -0.551,-0.609 c -0.513,-0.568 -0.668,-0.696 -0.668,-0.551 m -55.04,3.504 c 1.648,1.651 3.039,3.001 3.09,3.001 0.052,0 -1.254,-1.35 -2.902,-3.001 -1.648,-1.65 -3.038,-3 -3.09,-3 -0.051,0 1.255,1.35 2.902,3 m 44.443,9.236 -3.186,3.235 3.235,-3.186 c 1.779,-1.752 3.235,-3.208 3.235,-3.235 0,-0.133 -0.324,0.181 -3.284,3.186 m -26.815,8.58 c 2.164,2.166 3.977,3.938 4.029,3.938 0.051,0 -1.677,-1.772 -3.841,-3.938 -2.164,-2.166 -3.977,-3.938 -4.029,-3.938 -0.051,0 1.677,1.772 3.841,3.938 m 12,6.048 -2.998,3.047 3.047,-2.998 c 2.831,-2.786 3.132,-3.097 2.998,-3.097 -0.027,0 -1.398,1.371 -3.047,3.048 m 144.016,32.067 -0.741,0.797 0.797,-0.741 c 0.741,-0.69 0.883,-0.853 0.741,-0.853 -0.031,0 -0.389,0.359 -0.797,0.797 m -283.161,0.141 c 0.403,0.412 0.775,0.75 0.827,0.75 0.051,0 -0.236,-0.338 -0.639,-0.75 -0.403,-0.413 -0.775,-0.75 -0.826,-0.75 -0.052,0 0.236,0.337 0.638,0.75 m 278.011,5.204 -3.468,3.516 3.516,-3.468 c 1.934,-1.907 3.517,-3.489 3.517,-3.516 0,-0.133 -0.344,0.201 -3.565,3.468 M 63.291,364.557 c 1.648,1.65 3.038,3 3.09,3 0.052,0 -1.254,-1.35 -2.902,-3 -1.648,-1.65 -3.039,-3.001 -3.09,-3.001 -0.052,0 1.254,1.351 2.902,3.001 m -4.688,4.688 c 0.924,0.928 1.722,1.688 1.774,1.688 0.051,0 -0.663,-0.76 -1.587,-1.688 -0.924,-0.928 -1.722,-1.688 -1.773,-1.688 -0.052,0 0.662,0.76 1.586,1.688 m 9.939,0.375 c 0.403,0.413 0.775,0.75 0.826,0.75 0.052,0 -0.236,-0.337 -0.639,-0.75 -0.402,-0.412 -0.774,-0.75 -0.826,-0.75 -0.051,0 0.236,0.338 0.639,0.75 m 262.532,0.235 -0.741,0.797 0.797,-0.742 c 0.741,-0.689 0.883,-0.852 0.741,-0.852 -0.03,0 -0.389,0.358 -0.797,0.797 m -267.877,3.762 c 0,0.032 0.275,0.307 0.61,0.61 l 0.609,0.55 -0.55,-0.609 c -0.514,-0.568 -0.669,-0.696 -0.669,-0.551 m 272.75,0.738 -0.551,0.61 0.61,-0.551 c 0.568,-0.513 0.695,-0.668 0.55,-0.668 -0.032,0 -0.306,0.274 -0.609,0.609 M 49.555,397.843 c 0.002,0.413 0.041,0.56 0.085,0.326 0.045,-0.233 0.044,-0.57 -0.003,-0.75 -0.047,-0.179 -0.084,0.012 -0.082,0.424 m 293.671,0.563 c 0.002,0.413 0.04,0.559 0.085,0.326 0.045,-0.233 0.043,-0.571 -0.004,-0.75 -0.046,-0.179 -0.083,0.011 -0.081,0.424 m -293.842,4.501 c 10e-4,0.825 0.034,1.139 0.074,0.698 0.039,-0.441 0.039,-1.116 -10e-4,-1.5 -0.041,-0.384 -0.073,-0.023 -0.073,0.802 m 294.054,1.781 c 0,1.289 0.03,1.817 0.067,1.172 0.037,-0.644 0.037,-1.699 0,-2.344 -0.037,-0.644 -0.067,-0.117 -0.067,1.172 M 42.27,406.282 c 0,1.65 0.029,2.3 0.064,1.445 0.035,-0.856 0.034,-2.206 -0.001,-3.001 -0.035,-0.794 -0.063,-0.094 -0.063,1.556 m 308.28,0.563 c 10e-4,0.619 0.036,0.849 0.078,0.512 0.042,-0.337 0.041,-0.843 -0.002,-1.125 -0.043,-0.282 -0.077,-0.006 -0.076,0.613 m -7.121,1.781 c 0,0.774 0.033,1.09 0.074,0.704 0.04,-0.387 0.04,-1.02 0,-1.407 -0.041,-0.387 -0.074,-0.07 -0.074,0.703 m -294.058,0.938 c 0,0.464 0.037,0.654 0.082,0.422 0.044,-0.232 0.044,-0.612 0,-0.844 -0.045,-0.232 -0.082,-0.042 -0.082,0.422 m 132.767,10.631 c 0.18,0.047 0.476,0.047 0.656,0 0.181,-0.047 0.033,-0.086 -0.328,-0.086 -0.361,0 -0.509,0.039 -0.328,0.086 m 35.068,0 c 0.18,0.047 0.476,0.047 0.656,0 0.181,-0.047 0.033,-0.086 -0.328,-0.086 -0.361,0 -0.509,0.039 -0.328,0.086 m -33.005,0.187 c 0.18,0.048 0.476,0.048 0.656,0 0.181,-0.047 0.033,-0.085 -0.328,-0.085 -0.361,0 -0.509,0.038 -0.328,0.085 m 30.942,0 c 0.18,0.048 0.476,0.048 0.656,0 0.181,-0.047 0.033,-0.085 -0.328,-0.085 -0.361,0 -0.509,0.038 -0.328,0.085 m -28.223,0.191 c 0.232,0.045 0.612,0.045 0.844,0 0.232,-0.045 0.042,-0.081 -0.422,-0.081 -0.464,0 -0.654,0.036 -0.422,0.081 m 25.316,0 c 0.232,0.045 0.612,0.045 0.844,0 0.232,-0.045 0.042,-0.081 -0.422,-0.081 -0.464,0 -0.654,0.036 -0.422,0.081 m -22.128,0.191 c 0.335,0.041 0.884,0.041 1.219,0 0.335,-0.042 0.061,-0.076 -0.61,-0.076 -0.67,0 -0.944,0.034 -0.609,0.076 m 18.756,0 c 0.337,0.042 0.844,0.041 1.125,-0.002 0.282,-0.043 0.006,-0.077 -0.613,-0.076 -0.618,0.001 -0.849,0.036 -0.512,0.078 m -11.712,0.192 c 1.631,0.031 4.247,0.031 5.813,0 1.567,-0.031 0.232,-0.057 -2.965,-0.057 -3.197,0 -4.479,0.026 -2.848,0.057 m -6.575,6.928 c 0.18,0.047 0.476,0.047 0.656,0 0.181,-0.048 0.033,-0.086 -0.328,-0.086 -0.361,0 -0.509,0.038 -0.328,0.086 m 18.19,0 c 0.18,0.047 0.476,0.047 0.656,0 0.181,-0.048 0.033,-0.086 -0.328,-0.086 -0.361,0 -0.509,0.038 -0.328,0.086 m -11.903,0.195 c 0.441,0.04 1.116,0.039 1.5,-0.001 0.384,-0.04 0.023,-0.073 -0.802,-0.072 -0.825,0.001 -1.139,0.034 -0.698,0.073 m 4.871,0 c 0.438,0.04 1.155,0.04 1.594,0 0.438,-0.039 0.079,-0.072 -0.797,-0.072 -0.877,0 -1.236,0.033 -0.797,0.072 m 132.623,4.879 -1.025,1.079 1.079,-1.025 c 1.001,-0.953 1.164,-1.132 1.025,-1.132 -0.03,0 -0.515,0.485 -1.079,1.078 m -275.661,0.293 c 0,0.033 0.274,0.307 0.609,0.61 l 0.61,0.551 -0.551,-0.61 c -0.514,-0.568 -0.668,-0.696 -0.668,-0.551 m 108.849,0.551 -0.551,0.61 0.609,-0.551 c 0.336,-0.303 0.61,-0.577 0.61,-0.61 0,-0.145 -0.155,-0.017 -0.668,0.551 m 172.342,3.563 -0.741,0.797 0.797,-0.741 c 0.741,-0.689 0.883,-0.853 0.741,-0.853 -0.031,0 -0.389,0.359 -0.797,0.797 M 98.5,445.324 c 0.18,0.047 0.476,0.047 0.656,0 0.181,-0.047 0.033,-0.086 -0.328,-0.086 -0.361,0 -0.509,0.039 -0.328,0.086 m 29.254,0 c 0.181,0.047 0.476,0.047 0.657,0 0.18,-0.047 0.033,-0.086 -0.328,-0.086 -0.361,0 -0.509,0.039 -0.329,0.086 m 136.618,0.003 c 0.233,0.045 0.57,0.043 0.75,-0.004 0.179,-0.047 -0.012,-0.083 -0.424,-0.081 -0.413,0.002 -0.56,0.04 -0.326,0.085 m 29.254,0 c 0.233,0.045 0.571,0.043 0.75,-0.004 0.18,-0.047 -0.011,-0.083 -0.424,-0.081 -0.412,0.002 -0.559,0.04 -0.326,0.085 m -190.536,0.19 c 0.333,0.042 0.924,0.043 1.313,0.002 0.389,-0.041 0.116,-0.075 -0.606,-0.075 -0.722,-0.001 -1.04,0.032 -0.707,0.073 m 19.316,0 c 0.332,0.042 0.923,0.043 1.312,0.002 0.389,-0.041 0.117,-0.075 -0.605,-0.075 -0.722,-0.001 -1.04,0.032 -0.707,0.073 m 146.647,0 c 0.333,0.042 0.924,0.043 1.313,0.002 0.389,-0.041 0.117,-0.075 -0.605,-0.075 -0.722,-0.001 -1.04,0.032 -0.708,0.073 m 19.316,0 c 0.333,0.042 0.924,0.043 1.313,0.002 0.389,-0.041 0.116,-0.075 -0.606,-0.075 -0.722,-0.001 -1.04,0.032 -0.707,0.073"
     id="path1" />
  <path
     style="fill:#656c77;fill-rule:evenodd;stroke:none"
     inkscape:connector-curvature="0"
     d="m 184.857,6.696 c 0.232,0.045 0.612,0.045 0.844,0 0.232,-0.045 0.042,-0.081 -0.422,-0.081 -0.464,0 -0.654,0.036 -0.422,0.081 m 18.943,0 c 0.233,0.045 0.57,0.043 0.75,-0.004 0.179,-0.047 -0.012,-0.083 -0.424,-0.081 -0.413,0.002 -0.56,0.04 -0.326,0.085 M 77.128,7.265 c 0.597,0.037 1.525,0.037 2.063,-10e-4 0.538,-0.038 0.05,-0.068 -1.085,-0.068 -1.135,0.001 -1.575,0.032 -0.978,0.069 m 236.662,0 c 0.597,0.037 1.525,0.037 2.063,-10e-4 0.538,-0.038 0.049,-0.068 -1.085,-0.068 -1.135,0.001 -1.575,0.032 -0.978,0.069 m -126.776,6.561 c 0.386,0.041 1.019,0.041 1.406,0 0.387,-0.04 0.07,-0.073 -0.703,-0.073 -0.774,0 -1.09,0.033 -0.703,0.073 m 13.877,0 c 0.387,0.041 1.019,0.041 1.406,0 0.387,-0.04 0.071,-0.073 -0.703,-0.073 -0.774,0 -1.09,0.033 -0.703,0.073 m -19.595,0.184 c 0.233,0.045 0.571,0.043 0.75,-0.004 0.18,-0.047 -0.011,-0.084 -0.424,-0.082 -0.412,0.003 -0.559,0.041 -0.326,0.086 m 26.252,0 c 0.232,0.044 0.612,0.044 0.844,0 0.232,-0.045 0.042,-0.082 -0.422,-0.082 -0.464,0 -0.654,0.037 -0.422,0.082 m -30.286,0.184 c 0.181,0.047 0.476,0.047 0.656,0 0.181,-0.047 0.033,-0.086 -0.328,-0.086 -0.361,0 -0.508,0.039 -0.328,0.086 m 34.414,0.003 c 0.233,0.045 0.571,0.043 0.75,-0.003 0.179,-0.047 -0.012,-0.084 -0.424,-0.082 -0.413,0.002 -0.559,0.04 -0.326,0.085 m -97.471,1.649 c 0.35,0.361 0.679,0.657 0.73,0.657 0.052,0 -0.192,-0.296 -0.542,-0.657 -0.35,-0.361 -0.678,-0.656 -0.73,-0.656 -0.052,0 0.192,0.295 0.542,0.656 m 162.26,11.475 c 0.181,0.047 0.476,0.047 0.656,0 0.181,-0.047 0.033,-0.086 -0.328,-0.086 -0.361,0 -0.508,0.039 -0.328,0.086 M 194.99,28.08 c 0.545,0.038 1.389,0.038 1.875,-10e-4 0.487,-0.038 0.041,-0.069 -0.991,-0.069 -1.031,10e-4 -1.429,0.032 -0.884,0.07 m 8.251,0 c 0.545,0.038 1.389,0.038 1.875,-10e-4 0.487,-0.038 0.041,-0.069 -0.99,-0.069 -1.032,10e-4 -1.43,0.032 -0.885,0.07 m -13.508,0.182 c 0.232,0.044 0.612,0.044 0.844,0 0.232,-0.045 0.042,-0.082 -0.422,-0.082 -0.464,0 -0.654,0.037 -0.422,0.082 m 19.69,0 c 0.232,0.044 0.612,0.044 0.844,0 0.232,-0.045 0.042,-0.082 -0.422,-0.082 -0.464,0 -0.654,0.037 -0.422,0.082 m -16.781,7.128 c 0.285,0.043 0.707,0.042 0.938,-0.002 0.23,-0.045 -0.003,-0.08 -0.519,-0.079 -0.515,0.002 -0.704,0.038 -0.419,0.081 m 13.877,0 c 0.285,0.043 0.707,0.042 0.938,-0.002 0.231,-0.045 -0.003,-0.08 -0.518,-0.079 -0.516,0.002 -0.705,0.038 -0.42,0.081 m 4.311,0.182 c 0.18,0.047 0.476,0.047 0.656,0 0.181,-0.047 0.033,-0.085 -0.328,-0.085 -0.361,0 -0.509,0.038 -0.328,0.085 m -25.317,0.188 c 0.181,0.047 0.476,0.047 0.657,0 0.18,-0.047 0.033,-0.086 -0.328,-0.086 -0.361,0 -0.509,0.039 -0.329,0.086 M 28.18,48.383 c 0,0.464 0.037,0.654 0.082,0.422 0.044,-0.233 0.044,-0.612 0,-0.844 -0.045,-0.232 -0.082,-0.043 -0.082,0.422 m 336.441,1.781 c 0.001,0.825 0.034,1.139 0.074,0.698 0.039,-0.441 0.039,-1.116 -0.002,-1.5 -0.04,-0.384 -0.072,-0.023 -0.072,0.802 M 35.299,50.07 c 0,0.361 0.039,0.509 0.086,0.328 0.047,-0.18 0.047,-0.475 0,-0.656 -0.047,-0.18 -0.086,-0.033 -0.086,0.328 M 48.57,80.696 c 0,0.033 0.274,0.307 0.61,0.61 l 0.609,0.551 -0.551,-0.61 C 48.725,80.679 48.57,80.551 48.57,80.696 m 287.107,0.785 c 0.35,0.361 0.679,0.657 0.73,0.657 0.052,0 -0.192,-0.296 -0.542,-0.657 -0.35,-0.361 -0.678,-0.656 -0.73,-0.656 -0.052,0 0.193,0.295 0.542,0.656 m -271.74,0.235 -0.646,0.703 0.703,-0.646 c 0.387,-0.356 0.704,-0.672 0.704,-0.703 0,-0.144 -0.159,-0.009 -0.761,0.646 m 274.178,1.981 c 0,0.032 0.275,0.306 0.61,0.609 l 0.609,0.551 -0.551,-0.609 c -0.513,-0.569 -0.668,-0.696 -0.668,-0.551 m -279.421,3.082 -2.529,2.579 2.579,-2.529 c 1.418,-1.391 2.578,-2.552 2.578,-2.579 0,-0.134 -0.279,0.134 -2.628,2.529 m 10.961,-1.219 -0.55,0.61 0.609,-0.551 c 0.568,-0.513 0.696,-0.668 0.551,-0.668 -0.032,0 -0.307,0.274 -0.61,0.609 M 43.132,85.385 c 0,0.032 0.274,0.306 0.609,0.609 l 0.61,0.551 -0.551,-0.61 c -0.514,-0.568 -0.668,-0.695 -0.668,-0.55 m 289.639,2.566 c 0.403,0.413 0.774,0.75 0.826,0.75 0.052,0 -0.236,-0.337 -0.639,-0.75 -0.403,-0.412 -0.774,-0.75 -0.826,-0.75 -0.052,0 0.236,0.338 0.639,0.75 m -266.111,0.422 -0.931,0.985 0.985,-0.931 c 0.541,-0.512 0.984,-0.955 0.984,-0.984 0,-0.14 -0.174,0.015 -1.038,0.93 m -6.463,6.423 c -0.456,0.464 -0.786,0.844 -0.735,0.844 0.052,0 0.467,-0.38 0.922,-0.844 0.456,-0.464 0.786,-0.844 0.735,-0.844 -0.052,0 -0.467,0.38 -0.922,0.844 m 279.794,0.375 c 0.35,0.361 0.678,0.656 0.73,0.656 0.051,0 -0.193,-0.295 -0.543,-0.656 -0.35,-0.361 -0.678,-0.656 -0.73,-0.656 -0.051,0 0.193,0.295 0.543,0.656 m -282.525,2.579 -0.551,0.609 0.61,-0.551 c 0.568,-0.513 0.695,-0.668 0.55,-0.668 -0.032,0 -0.306,0.274 -0.609,0.61 m 284.587,-0.364 c 0,0.033 0.275,0.307 0.61,0.61 l 0.609,0.551 -0.55,-0.61 c -0.514,-0.568 -0.669,-0.695 -0.669,-0.551 M 186.662,197.931 c -0.058,0.151 -0.062,0.383 -0.009,0.516 0.053,0.132 0.103,0.052 0.111,-0.178 0.015,-0.417 0.028,-0.418 3.906,-0.473 l 3.892,-0.054 -3.897,-0.043 c -3.28,-0.036 -3.914,0 -4.003,0.232 m -0.2,6.007 c 0.001,0.619 0.036,0.85 0.078,0.512 0.042,-0.337 0.041,-0.843 -0.002,-1.125 -0.043,-0.282 -0.077,-0.006 -0.076,0.613 m 18.968,9.095 c 0,3.868 0.024,5.45 0.055,3.516 0.03,-1.933 0.03,-5.098 0,-7.032 -0.031,-1.934 -0.055,-0.352 -0.055,3.516 m -19.155,-2.719 c 0.001,0.619 0.036,0.85 0.078,0.512 0.041,-0.337 0.04,-0.843 -0.002,-1.125 -0.043,-0.282 -0.077,-0.006 -0.076,0.613 m 206.08,5.532 c 0,0.361 0.038,0.509 0.086,0.328 0.047,-0.18 0.047,-0.475 0,-0.656 -0.048,-0.18 -0.086,-0.033 -0.086,0.328 m -206.266,0.75 c 0,0.671 0.034,0.945 0.076,0.61 0.041,-0.335 0.041,-0.884 0,-1.219 -0.042,-0.335 -0.076,-0.061 -0.076,0.609 m 206.463,2.72 c 0.002,0.515 0.038,0.704 0.081,0.419 0.043,-0.285 0.042,-0.707 -0.002,-0.938 -0.045,-0.23 -0.08,0.003 -0.079,0.519 M 7.367,219.503 c 0.002,0.516 0.038,0.704 0.081,0.419 0.043,-0.285 0.042,-0.707 -0.002,-0.937 -0.045,-0.231 -0.08,0.002 -0.079,0.518 m 178.535,3.469 c 0,0.671 0.034,0.945 0.075,0.61 0.042,-0.335 0.042,-0.884 0,-1.219 -0.041,-0.335 -0.075,-0.061 -0.075,0.609 m 213.962,-0.187 c 0,0.464 0.036,0.654 0.081,0.422 0.045,-0.232 0.045,-0.612 0,-0.844 -0.045,-0.232 -0.081,-0.042 -0.081,0.422 M 0.056,223.16 c 0,0.567 0.035,0.799 0.078,0.516 0.043,-0.284 0.043,-0.748 0,-1.032 -0.043,-0.283 -0.078,-0.051 -0.078,0.516 m 392.709,4.876 c 0,2.011 0.027,2.834 0.061,1.828 0.034,-1.006 0.034,-2.651 0,-3.657 -0.034,-1.005 -0.061,-0.183 -0.061,1.829 m -385.563,0 c 0,1.701 0.029,2.398 0.064,1.547 0.034,-0.851 0.034,-2.244 0,-3.094 -0.035,-0.851 -0.064,-0.155 -0.064,1.547 m 198.218,0.375 c 0,1.598 0.029,2.252 0.064,1.453 0.035,-0.799 0.035,-2.107 0,-2.907 -0.035,-0.799 -0.064,-0.145 -0.064,1.454 m -19.71,0.562 c 0,0.568 0.035,0.8 0.078,0.516 0.043,-0.284 0.043,-0.748 0,-1.031 -0.043,-0.284 -0.078,-0.052 -0.078,0.515 M 0.056,232.911 c 0,0.568 0.035,0.8 0.078,0.516 0.043,-0.284 0.043,-0.748 0,-1.031 -0.043,-0.284 -0.078,-0.052 -0.078,0.515 m 399.804,0.469 c 0.002,0.413 0.04,0.559 0.085,0.326 0.045,-0.233 0.043,-0.571 -0.004,-0.75 -0.047,-0.179 -0.083,0.012 -0.081,0.424 m -214.34,0.75 c 0.002,0.516 0.038,0.705 0.081,0.42 0.043,-0.285 0.042,-0.707 -0.003,-0.938 -0.044,-0.231 -0.079,0.003 -0.078,0.518 M 7.367,236.568 c 0.002,0.516 0.038,0.705 0.081,0.42 0.043,-0.285 0.042,-0.707 -0.002,-0.938 -0.045,-0.231 -0.08,0.003 -0.079,0.518 m 385.185,0.188 c 0.002,0.515 0.038,0.704 0.081,0.419 0.043,-0.285 0.042,-0.707 -0.002,-0.938 -0.045,-0.23 -0.08,0.003 -0.079,0.519 m -186.962,0.75 c 0.001,0.619 0.036,0.849 0.078,0.512 0.042,-0.337 0.041,-0.843 -0.002,-1.125 -0.043,-0.282 -0.077,-0.006 -0.076,0.613 m -20.264,0.75 c 0.002,0.413 0.041,0.559 0.086,0.326 0.044,-0.233 0.043,-0.571 -0.004,-0.75 -0.047,-0.179 -0.084,0.011 -0.082,0.424 m -0.191,3.657 c 0,0.361 0.039,0.508 0.086,0.328 0.047,-0.181 0.047,-0.476 0,-0.656 -0.047,-0.181 -0.086,-0.033 -0.086,0.328 m 20.636,0.187 c 0,0.464 0.036,0.654 0.081,0.422 0.045,-0.232 0.045,-0.612 0,-0.844 -0.045,-0.232 -0.081,-0.042 -0.081,0.422 m 0.18,3.563 c 0,0.361 0.038,0.509 0.085,0.329 0.048,-0.181 0.048,-0.476 0,-0.657 -0.047,-0.18 -0.085,-0.033 -0.085,0.328 m 184.067,11.111 c -15.811,30.745 -40.398,59.477 -69.155,80.812 -78.022,57.885 -183.859,62.21 -266.292,10.881 -3.604,-2.244 -9,-5.817 -10.411,-6.895 -0.76,-0.579 -0.7,-0.469 0.893,1.665 32.359,43.331 80.475,70.823 133.944,76.532 102.573,10.95 194.654,-58.915 211.258,-160.289 0.692,-4.224 0.67,-4.471 -0.237,-2.706 m -168.733,41.491 c 0.872,0.877 1.627,1.594 1.679,1.594 0.052,0 -0.62,-0.717 -1.492,-1.594 -0.872,-0.876 -1.628,-1.594 -1.679,-1.594 -0.052,0 0.619,0.718 1.492,1.594 m -0.377,6.048 -3.28,3.329 3.328,-3.28 c 3.093,-3.047 3.414,-3.377 3.28,-3.377 -0.027,0 -1.525,1.497 -3.328,3.328 m -43.412,8.861 c 2.268,2.269 4.165,4.126 4.217,4.126 0.051,0 -1.762,-1.857 -4.029,-4.126 -2.267,-2.269 -4.165,-4.126 -4.216,-4.126 -0.052,0 1.761,1.857 4.028,4.126 m 28.503,5.86 -3.186,3.235 3.235,-3.186 c 1.779,-1.752 3.235,-3.208 3.235,-3.235 0,-0.133 -0.324,0.181 -3.284,3.186 m -12.844,9.986 c 0.665,0.671 1.25,1.219 1.302,1.219 0.052,0 -0.45,-0.548 -1.114,-1.219 -0.665,-0.67 -1.251,-1.219 -1.302,-1.219 -0.052,0 0.45,0.549 1.114,1.219 M 55.884,366.491 c 0,0.032 0.274,0.306 0.609,0.609 l 0.61,0.551 -0.551,-0.609 c -0.514,-0.568 -0.668,-0.696 -0.668,-0.551 m 5.626,5.661 c 0.664,0.67 1.25,1.219 1.301,1.219 0.052,0 -0.449,-0.549 -1.114,-1.219 -0.664,-0.671 -1.25,-1.219 -1.302,-1.219 -0.051,0 0.45,0.548 1.115,1.219 m 276.317,0.516 -0.931,0.984 0.949,-0.895 c 0.522,-0.493 1.021,-0.83 1.108,-0.75 0.088,0.08 0.099,0.039 0.025,-0.09 -0.179,-0.311 -0.098,-0.363 -1.151,0.751 m -273.504,2.074 c 0,0.032 0.274,0.307 0.609,0.61 l 0.609,0.55 -0.55,-0.609 c -0.514,-0.568 -0.668,-0.696 -0.668,-0.551 m 270.499,0.739 -0.551,0.609 0.609,-0.551 c 0.569,-0.513 0.696,-0.668 0.551,-0.668 -0.032,0 -0.306,0.274 -0.609,0.61 M 49.555,399.156 c 0.002,0.413 0.041,0.559 0.085,0.326 0.045,-0.233 0.044,-0.571 -0.003,-0.75 -0.047,-0.179 -0.084,0.012 -0.082,0.424 m 293.671,0.563 c 0.002,0.412 0.04,0.559 0.085,0.326 0.045,-0.234 0.043,-0.571 -0.004,-0.75 -0.046,-0.18 -0.083,0.011 -0.081,0.424 m -300.985,3 c 0.002,0.413 0.041,0.559 0.086,0.326 0.045,-0.233 0.043,-0.571 -0.004,-0.75 -0.047,-0.179 -0.084,0.012 -0.082,0.424 m 308.316,1.688 c 0,0.825 0.033,1.139 0.073,0.698 0.039,-0.441 0.039,-1.116 -10e-4,-1.5 -0.041,-0.384 -0.073,-0.023 -0.072,0.802 m -301.165,2.157 c 0,1.289 0.03,1.816 0.067,1.172 0.037,-0.645 0.037,-1.7 0,-2.345 -0.037,-0.644 -0.067,-0.117 -0.067,1.173 m 301.154,2.156 c 0.001,0.516 0.038,0.705 0.081,0.419 0.043,-0.285 0.042,-0.707 -0.003,-0.937 -0.044,-0.231 -0.08,0.002 -0.078,0.518 m -155.844,19.356 c 0.284,0.043 0.748,0.043 1.032,0 0.283,-0.043 0.051,-0.078 -0.516,-0.078 -0.567,0 -0.799,0.035 -0.516,0.078 m 9.754,0 c 0.285,0.044 0.707,0.042 0.938,-0.002 0.231,-0.045 -0.003,-0.08 -0.518,-0.078 -0.516,0.001 -0.705,0.037 -0.42,0.08 m 19.735,4.742 c 0.403,0.412 0.775,0.75 0.827,0.75 0.051,0 -0.236,-0.338 -0.639,-0.75 -0.403,-0.413 -0.775,-0.75 -0.826,-0.75 -0.052,0 0.235,0.337 0.638,0.75 M 99.719,445.327 c 0.232,0.045 0.612,0.045 0.844,0 0.232,-0.045 0.042,-0.081 -0.422,-0.081 -0.464,0 -0.654,0.036 -0.422,0.081 m 26.629,0 c 0.232,0.045 0.612,0.045 0.844,0 0.232,-0.045 0.042,-0.081 -0.422,-0.081 -0.464,0 -0.654,0.036 -0.422,0.081 m 139.334,0 c 0.232,0.045 0.612,0.045 0.844,0 0.232,-0.045 0.042,-0.081 -0.422,-0.081 -0.464,0 -0.654,0.036 -0.422,0.081 m 26.442,0 c 0.232,0.045 0.612,0.045 0.844,0 0.232,-0.045 0.042,-0.081 -0.422,-0.081 -0.464,0 -0.654,0.036 -0.422,0.081 m -185.936,0.194 c 0.697,0.036 1.836,0.036 2.532,0 0.696,-0.036 0.127,-0.065 -1.266,-0.065 -1.392,0 -1.962,0.029 -1.266,0.065 m 12.002,0 c 0.697,0.036 1.836,0.036 2.532,0 0.696,-0.036 0.127,-0.065 -1.266,-0.065 -1.392,0 -1.962,0.029 -1.266,0.065 m 153.962,0 c 0.696,0.036 1.835,0.036 2.532,0 0.696,-0.036 0.126,-0.065 -1.266,-0.065 -1.393,0 -1.962,0.029 -1.266,0.065 m 12.002,0 c 0.696,0.036 1.835,0.036 2.531,0 0.697,-0.036 0.127,-0.065 -1.265,-0.065 -1.393,0 -1.962,0.029 -1.266,0.065"
     id="path2" />
  <path
     style="fill:#939dac;fill-rule:evenodd;stroke:none"
     inkscape:connector-curvature="0"
     d="m 193.108,6.516 c 0.851,0.034 2.244,0.034 3.095,0 0.85,-0.035 0.154,-0.064 -1.548,-0.064 -1.701,0 -2.398,0.029 -1.547,0.064 m -9.842,0.182 c 0.285,0.043 0.707,0.042 0.937,-0.002 0.231,-0.045 -0.002,-0.08 -0.518,-0.079 -0.516,0.002 -0.704,0.038 -0.419,0.081 m 21.938,0 c 0.284,0.043 0.748,0.043 1.031,0 0.284,-0.043 0.052,-0.078 -0.515,-0.078 -0.568,0 -0.8,0.035 -0.516,0.078 M 178.95,6.88 c 0.18,0.047 0.476,0.047 0.656,0 0.181,-0.047 0.033,-0.085 -0.328,-0.085 -0.361,0 -0.509,0.038 -0.328,0.085 M 72.855,7.522 c -6.098,0.73 -12.635,3 -17.705,6.145 -24.568,15.246 -26.544,51.689 -3.763,69.408 3.942,3.067 4.153,3.582 2.898,7.07 l -0.66,1.838 3.614,-3.696 C 98.933,45.652 156.86,23.871 215.979,28.6 c 43.93,3.514 85.658,21.691 118.35,51.555 1.477,1.348 3.212,2.932 3.856,3.519 l 1.172,1.067 2.051,-1.606 C 354.446,72.925 360.2,55.899 356.186,39.404 347.72,4.615 302.195,-4.371 280.703,24.504 c -2.529,3.397 -2.98,3.479 -8.09,1.476 C 230.885,9.62 160.735,9.488 118.425,25.691 c -3.511,1.344 -4.404,1.119 -6.61,-1.668 C 104.552,14.844 96.035,9.69 84.951,7.767 82.833,7.4 75.17,7.244 72.855,7.522 m -30.01,7.34 -1.307,1.359 1.359,-1.307 c 1.263,-1.215 1.446,-1.412 1.308,-1.412 -0.029,0 -0.64,0.612 -1.36,1.36 m 306.522,-0.551 c 0,0.032 0.274,0.306 0.61,0.609 l 0.609,0.551 -0.551,-0.609 c -0.513,-0.568 -0.668,-0.696 -0.668,-0.551 M 190.905,35.459 C 65.98,41.365 -19.829,161.785 14.927,282.419 c 5.733,19.898 18.017,45.224 28.16,58.055 2.823,3.571 25.507,16.703 39.988,23.148 114.131,50.798 248.921,4.128 306.563,-106.144 l 1.323,-2.532 0.393,-3.375 C 405.287,131.886 310.6,29.8 190.905,35.459 m 173.703,12.549 c 0,0.464 0.037,0.654 0.081,0.421 0.045,-0.232 0.045,-0.611 0,-0.843 -0.044,-0.233 -0.081,-0.043 -0.081,0.422 m -14.964,37.365 -1.496,1.547 1.547,-1.496 c 0.851,-0.823 1.547,-1.519 1.547,-1.547 0,-0.137 -0.209,0.059 -1.598,1.496 m -147.721,112.47 h 3.611 l -0.019,18.238 c -0.038,35.389 1.81,53.751 6.987,69.409 1.678,5.076 2.782,6.72 7.89,11.744 l 3.908,3.844 -14.742,14.534 c -8.108,7.993 -14.813,14.559 -14.899,14.59 -0.136,0.049 -7.217,-7.037 -25.458,-25.474 l -4.366,-4.413 3.136,-1.775 c 6.167,-3.49 8.983,-7.637 11.779,-17.351 3.847,-13.361 5.27,-28.131 6.377,-66.187 0.27,-9.282 0.53,-16.996 0.577,-17.142 0.073,-0.224 0.976,-0.245 5.847,-0.141 3.169,0.068 7.386,0.124 9.372,0.124 m 197.937,23.535 c 0.002,0.413 0.04,0.56 0.085,0.326 0.045,-0.233 0.043,-0.57 -0.004,-0.75 -0.047,-0.179 -0.083,0.012 -0.081,0.424 M 0.047,221.566 c 0.002,0.412 0.041,0.559 0.086,0.326 0.044,-0.233 0.043,-0.571 -0.004,-0.75 -0.047,-0.18 -0.084,0.011 -0.082,0.424 m 0,12.939 c 0.002,0.413 0.041,0.56 0.086,0.326 0.044,-0.233 0.043,-0.57 -0.004,-0.75 -0.047,-0.179 -0.084,0.012 -0.082,0.424 m 399.813,0.188 c 0.002,0.412 0.04,0.559 0.085,0.326 0.045,-0.233 0.043,-0.571 -0.004,-0.75 -0.047,-0.18 -0.083,0.011 -0.081,0.424 M 54.608,369.853 c -5.712,17.086 -6.876,42.261 -2.464,53.29 6.924,17.309 25.48,23.296 68.951,22.248 25.881,-0.624 39.358,-4.264 47.704,-12.885 2.166,-2.236 4.757,-5.995 4.238,-6.148 -0.126,-0.037 -1.748,-0.292 -3.604,-0.567 -40.542,-6 -79.48,-25.701 -109.817,-55.561 l -3.863,-3.802 -1.145,3.425 m 282.757,3.365 c -32.745,30.537 -70.9,48.38 -114.798,53.687 -1.306,0.158 -2.429,0.287 -2.495,0.287 -0.412,0 2.532,3.78 4.389,5.636 8.475,8.471 21.498,11.933 47.239,12.559 49.179,1.196 67.453,-6.698 71.202,-30.76 1.417,-9.094 -0.232,-29.318 -3.291,-40.371 -0.734,-2.65 -0.589,-2.583 -2.246,-1.038 m -295.12,28.095 c 0,0.464 0.037,0.654 0.081,0.422 0.045,-0.232 0.045,-0.612 0,-0.844 -0.044,-0.232 -0.081,-0.042 -0.081,0.422 m 308.301,0.844 c 0.001,0.515 0.038,0.704 0.081,0.419 0.043,-0.285 0.042,-0.707 -0.003,-0.938 -0.044,-0.23 -0.08,0.003 -0.078,0.519 m -0.01,7.97 c 0,0.361 0.038,0.508 0.086,0.328 0.047,-0.181 0.047,-0.476 0,-0.657 -0.048,-0.18 -0.086,-0.032 -0.086,0.329 m -308.298,0.562 c 0,0.361 0.038,0.509 0.085,0.328 0.048,-0.18 0.048,-0.476 0,-0.656 -0.047,-0.181 -0.085,-0.033 -0.085,0.328 m 151.06,17.385 c 0.233,0.045 0.571,0.044 0.75,-0.003 0.179,-0.047 -0.011,-0.084 -0.424,-0.082 -0.413,0.002 -0.559,0.041 -0.326,0.085 m 12.752,0 c 0.233,0.045 0.571,0.044 0.75,-0.003 0.179,-0.047 -0.011,-0.084 -0.424,-0.082 -0.413,0.002 -0.559,0.041 -0.326,0.085"
     id="path3" />
</svg>
